{"title":"Knowing.2009.720p.Bluray.x264.anoXmous","uid":6934687,"size":733526913,"categoryP":"video","categoryS":"hd___movies","magnet":"?xt=urn:btih:16a2d73d340f42a4fcc9355c997b9e0d0ca0a6e5&amp;dn=Knowing.2009.720p.Bluray.x264.anoXmous&amp;tr=udp%3A%2F%2Ftracker.openbittorrent.com%3A80&amp;tr=udp%3A%2F%2Fopen.demonii.com%3A1337&amp;tr=udp%3A%2F%2Ftracker.coppersurfer.tk%3A6969&amp;tr=udp%3A%2F%2Fexodus.desync.com%3A6969","seeders":0,"leechers":2,"uploader":"anoXmous","files":-1,"time":1325782119,"description":"Knowing.2009.720p.Bluray.x264.anoXmous\n\nFormat                           : MPEG-4\nFormat profile                   : Base Media\nCodec ID                         : isom\nFile size                        : 699 MiB\nDuration                         : 2h 1mn\nOverall bit rate mode            : Variable\nOverall bit rate                 : 805 Kbps\n\n\nVideo\nID                               : 1\nFormat                           : AVC\nFormat/Info                      : Advanced Video Codec\nFormat profile                   : &lt;a class=&quot;__cf_email__&quot; href=&quot;/cdn-cgi/l/email-protection&quot; data-cfemail=&quot;3f775658577f730b110e&quot;&gt;[email&amp;#160;protected]&lt;/a&gt;&lt;script cf-hash='f9e31' type=&quot;text/javascript&quot;&gt;\n/* &lt;![CDATA[ */!function(){try{var t=&quot;currentScript&quot;in document?document.currentScript:function(){for(var t=document.getElementsByTagName(&quot;script&quot;),e=t.length;e--;)if(t[e].getAttribute(&quot;cf-hash&quot;))return t[e]}();if(t&amp;&amp;t.previousSibling){var e,r,n,i,c=t.previousSibling,a=c.getAttribute(&quot;data-cfemail&quot;);if(a){for(e=&quot;&quot;,r=parseInt(a.substr(0,2),16),n=2;a.length-n;n+=2)i=parseInt(a.substr(n,2),16)^r,e+=String.fromCharCode(i);e=document.createTextNode(e),c.parentNode.replaceChild(e,c)}}}catch(u){}}();/* ]]&gt; */&lt;/script&gt;\nFormat settings, CABAC           : Yes\nFormat settings, ReFrames        : 4 frames\nCodec ID                         : avc1\nCodec ID/Info                    : Advanced Video Coding\nDuration                         : 2h 1mn\nBit rate                         : 732 Kbps\nMaximum bit rate                 : 5 565 Kbps\nWidth                            : 1 280 pixels\nHeight                           : 544 pixels\nDisplay aspect ratio             : 2.35:1\nFrame rate mode                  : Constant\nFrame rate                       : 23.976 fps\nColor space                      : YUV\nChroma subsampling               : 4:2:0\nBit depth                        : 8 bits\nScan type                        : Progressive\nBits/(Pixel*Frame)               : 0.044\nStream size                      : 636 MiB (91%)\nWriting library                  : x264 core 120 r2120 0c7dab9\n\n\nAudio\nID                               : 2\nFormat                           : AAC\nFormat/Info                      : Advanced Audio Codec\nFormat profile                   : LC\nCodec ID                         : 40\nDuration                         : 2h 1mn\nBit rate mode                    : Variable\nBit rate                         : 72.0 Kbps\nMaximum bit rate                 : 95.7 Kbps\nChannel(s)                       : 2 channels\nChannel positions                : Front: L R\nSampling rate                    : 48.0 KHz\nCompression mode                 : Lossy\nStream size                      : 61.3 MiB (9%)\n\n\n                 SUB             :\n\nKnowing.2009.720p.Bluray.x264.anoXmous_eng.srt\n\nKnowing.2009.720p.Bluray.x264.anoXmous_swe.srt\n &lt;a href=&quot;\nhttp://www.imdb.com/title/tt0448011/&quot; rel=&quot;nofollow&quot; target=&quot;_NEW&quot;&gt;\nhttp://www.imdb.com/title/tt0448011/&lt;/a&gt;\n\nThis work very fine with PSP and XBOX\t","torrent":{"xt":"urn:btih:16a2d73d340f42a4fcc9355c997b9e0d0ca0a6e5","amp;dn":"Knowing.2009.720p.Bluray.x264.anoXmous","amp;tr":["udp%3A%2F%2Ftracker.openbittorrent.com%3A80","udp%3A%2F%2Fopen.demonii.com%3A1337","udp%3A%2F%2Ftracker.coppersurfer.tk%3A6969","udp%3A%2F%2Fexodus.desync.com%3A6969"],"infoHash":"16a2d73d340f42a4fcc9355c997b9e0d0ca0a6e5","infoHashBuffer":{"type":"Buffer","data":[22,162,215,61,52,15,66,164,252,201,53,92,153,123,158,13,12,160,166,229]},"announce":[],"urlList":[]}}